<?xml version="1.0" encoding="utf-8"?>
<!-- Generator: Adobe Illustrator 25.0.0, SVG Export Plug-In . SVG Version: 6.00 Build 0)  -->
<svg version="1.1" id="图层_1" xmlns="http://www.w3.org/2000/svg" xmlns:xlink="http://www.w3.org/1999/xlink" x="0px" y="0px"
	 viewBox="0 0 1024 1024" style="enable-background:new 0 0 1024 1024;" xml:space="preserve">
<g>
	<path d="M148.48,267.59c10.26,0,18.6,8.21,18.6,18.36v65.21c0,10.13-8.32,18.36-18.6,18.36H83.26c-10.26,0-18.6-12.49-18.6-22.61
		v-60.96c0-10.15,8.34-18.36,18.6-18.36C83.26,267.59,148.48,267.59,148.48,267.59z"/>
	<path d="M856.25,167.71C783.04,92.44,660.29,66.68,512,64.67c-148.29,2.02-271.04,27.78-344.29,103.09
		c-17.77,17.29-32.78,37.34-45.37,59.84h26.14c32.31,0,58.6,26.18,58.6,58.36v65.21c0,32.18-26.29,58.36-58.6,58.36H83.27
		c-4.23,0-8.4-0.51-12.46-1.5c-3.72,32.89-5.64,67.67-6.13,103.98c0.19,14.05,0.6,27.86,1.24,41.43c5.49-1.7,11.32-2.62,17.36-2.62
		h65.21c32.31,0,58.6,26.18,58.6,58.36v65.21c0,32.18-26.29,58.36-58.6,58.36H94.88c16.15,49.42,39.7,91.28,72.87,123.54
		c73.2,75.26,195.96,101.02,344.25,103.04c148.29-2.02,271.04-27.78,344.29-103.09c75.26-73.2,101.03-195.96,103.04-344.25
		C957.32,363.71,931.56,240.96,856.25,167.71z M529.76,217.06c93.74,0,170.04,76.27,170.04,170.02
		c0,93.69-76.3,169.99-170.04,169.99c-93.77,0-170.02-76.3-170.02-169.99C359.75,293.33,436.05,217.06,529.76,217.06z
		 M655.94,769.61h-252.4c-61.12,0-103.95-3.52-128.01-6.79c6.57-89.01,54.44-165.86,123.17-209.63
		c36.31,28.58,81.39,46.38,131.1,46.38c49.7,0,94.82-17.74,131.04-46.38c68.82,43.76,116.68,120.56,123.2,209.63
		C759.94,766.09,717.08,769.61,655.94,769.61z"/>
	<path d="M83.26,590.82h65.21c10.26,0,18.6,8.24,18.6,18.36v65.21c0,10.13-8.32,18.36-18.6,18.36H83.26
		c-10.26,0-18.6-12.49-18.6-22.61V609.2c0-10.15,8.34-18.36,18.6-18.36L83.26,590.82z"/>
</g>
</svg>
