<?xml version="1.0" encoding="utf-8"?>
<!-- Generator: Adobe Illustrator 25.0.0, SVG Export Plug-In . SVG Version: 6.00 Build 0)  -->
<svg version="1.1" id="图层_1" xmlns="http://www.w3.org/2000/svg" xmlns:xlink="http://www.w3.org/1999/xlink" x="0px" y="0px"
	 viewBox="0 0 1024 1024" style="enable-background:new 0 0 1024 1024;" xml:space="preserve">
<path d="M64.67,512c2.02-148.29,27.78-271.04,103.04-344.25C240.96,92.44,363.71,66.68,512,64.67
	c148.29,2.02,271.04,27.78,344.25,103.04c75.31,73.25,101.07,196,103.09,344.29c-2.02,148.29-27.78,271.04-103.04,344.25
	c-73.25,75.31-196,101.07-344.29,103.09c-148.29-2.02-271.04-27.78-344.25-103.04C92.44,783.04,66.68,660.29,64.67,512z
	 M362.32,729.82c26.84,0,48.79-21.95,48.79-48.79V456.58c0-26.84-21.95-48.79-48.79-48.79s-48.74,21.95-48.74,48.79v224.45
	C313.58,707.91,335.53,729.82,362.32,729.82z M535.25,729.82c26.79,0,48.74-21.95,48.74-48.79V362.37
	c0-26.84-21.95-48.74-48.79-48.74c-26.84,0-48.74,21.86-48.74,48.7v318.71c0,26.88,21.95,48.79,48.83,48.79H535.25z M708.09,729.82
	c26.84,0,48.79-21.95,48.79-48.79V542.82c0-26.84-21.95-48.79-48.79-48.79c-26.84,0-48.79,21.95-48.79,48.79v138.21
	C659.3,707.91,681.26,729.82,708.09,729.82z"/>
</svg>
