<?xml version="1.0" encoding="utf-8"?>
<!-- Generator: Adobe Illustrator 25.0.0, SVG Export Plug-In . SVG Version: 6.00 Build 0)  -->
<svg version="1.1" id="图层_1" xmlns="http://www.w3.org/2000/svg" xmlns:xlink="http://www.w3.org/1999/xlink" x="0px" y="0px"
	 viewBox="0 0 1024 1024" style="enable-background:new 0 0 1024 1024;" xml:space="preserve">
<g>
	<path d="M756.41,148.48c0,10.26-8.21,18.6-18.36,18.6h-65.21c-10.13,0-18.36-8.32-18.36-18.6V83.26c0-10.26,12.49-18.6,22.61-18.6
		h60.96c10.15,0,18.36,8.34,18.36,18.6C756.41,83.26,756.41,148.48,756.41,148.48z"/>
	<path d="M433.18,83.26v65.21c0,10.26-8.24,18.6-18.36,18.6h-65.21c-10.13,0-18.36-8.32-18.36-18.6V83.26
		c0-10.26,12.49-18.6,22.61-18.6h60.94c10.15,0,18.36,8.34,18.36,18.6L433.18,83.26z"/>
	<g>
		<rect x="321.33" y="449.72" width="95.33" height="95.33"/>
		<rect x="464.33" y="449.72" width="95.33" height="95.33"/>
		<rect x="321.33" y="592.72" width="95.33" height="95.33"/>
		<rect x="464.33" y="592.72" width="95.33" height="95.33"/>
		<rect x="607.33" y="592.72" width="95.33" height="95.33"/>
		<path d="M856.25,167.71c-17.29-17.77-37.34-32.78-59.84-45.37v26.14c0,32.31-26.18,58.6-58.36,58.6h-65.21
			c-32.18,0-58.36-26.29-58.36-58.6V83.27c0-4.23,0.51-8.4,1.5-12.46c-32.89-3.72-67.67-5.64-103.98-6.13
			c-14.05,0.19-27.86,0.6-41.43,1.24c1.7,5.49,2.62,11.32,2.62,17.36v65.21c0,32.31-26.18,58.6-58.36,58.6h-65.21
			c-32.18,0-58.36-26.29-58.36-58.6V94.88c-49.42,16.15-91.28,39.7-123.54,72.87C92.44,240.96,66.68,363.71,64.67,512
			c2.02,148.29,27.78,271.04,103.09,344.29c73.2,75.26,195.96,101.02,344.25,103.04c148.29-2.02,271.04-27.78,344.29-103.09
			c75.26-73.2,101.03-195.96,103.04-344.25C957.32,363.71,931.56,240.96,856.25,167.71z M798,720.44
			c0,34.76-28.18,62.94-62.94,62.94H288.95c-34.76,0-62.94-28.18-62.94-62.94V417.33c0-34.76,28.18-62.94,62.94-62.94h446.11
			c34.76,0,62.94,28.18,62.94,62.94V720.44z"/>
		<rect x="607.33" y="449.72" width="95.33" height="95.33"/>
	</g>
</g>
</svg>
