<?xml version="1.0" encoding="utf-8"?>
<!-- Generator: Adobe Illustrator 25.0.0, SVG Export Plug-In . SVG Version: 6.00 Build 0)  -->
<svg version="1.1" id="图层_1" xmlns="http://www.w3.org/2000/svg" xmlns:xlink="http://www.w3.org/1999/xlink" x="0px" y="0px"
	 viewBox="0 0 1024 1024" style="enable-background:new 0 0 1024 1024;" xml:space="preserve">
<g>
	<path d="M455.92,658.24c-11.02,0-18.73-1.77-23.12-5.32c-4.39-3.54-6.7-10.17-6.7-19.73c0-3.85,0.69-9.63,2.08-17.03
		c1.23-6.78,2.77-13.41,4.62-20.04l21.19-72.74c2.16-7.17,3.62-14.56,4.32-22.04c0.77-8.01,1.16-13.64,1.16-16.72
		c0-15.33-5.47-27.82-16.64-37.45s-26.89-14.41-47.31-14.41c-11.33,0-23.27,2-36.14,5.86s-26.12,8.71-39.92,14.1l-5.7,22.58
		c4.08-1.54,9.02-3.08,14.87-4.85c5.47-1.62,11.17-2.47,16.95-2.47c11.25,0,18.73,1.85,22.66,5.47c3.93,3.62,5.93,10.25,5.93,19.5
		c-0.08,5.78-0.69,11.56-2,17.18c-1.31,6.24-2.85,12.87-4.7,19.88l-21.19,73.13c-1.7,6.86-3.08,13.72-4.08,20.73
		c-0.85,5.93-1.31,11.94-1.31,17.95c0,14.95,5.7,27.43,17.18,37.22c11.48,9.79,27.28,14.56,47.85,14.56
		c13.41,0,25.12-1.77,35.22-5.16c10.17-3.39,23.66-8.32,40.69-14.87l5.63-22.66c-4.62,1.93-9.32,3.47-14.18,4.62
		C467.63,657.24,461.78,658.16,455.92,658.24L455.92,658.24z M391.81,345.46c0,12.64,4.93,23.43,14.95,32.36
		c10.02,8.94,21.88,13.41,35.76,13.41s25.74-4.55,35.68-13.41c9.86-8.86,14.72-19.73,14.72-32.36s-5.01-23.58-14.72-32.6
		c-9.94-9.02-21.88-13.56-35.68-13.56c-13.87,0-25.89,4.55-35.76,13.56C396.89,321.88,391.81,332.66,391.81,345.46L391.81,345.46z"
		/>
	<path d="M856.25,167.71C783.04,92.44,660.29,66.68,512,64.67c-148.29,2.02-271.04,27.78-344.29,103.09
		C92.44,240.96,66.68,363.71,64.67,512c2.02,148.29,27.78,271.04,103.09,344.29c73.2,75.26,195.96,101.03,344.25,103.04
		c148.29-2.02,271.04-27.78,344.29-103.09c75.27-73.2,101.03-195.96,103.04-344.25C957.32,363.71,931.56,240.96,856.25,167.71z
		 M789.33,748.18c0,7-5.66,12.65-12.65,12.65H247.32c-7,0-12.65-5.66-12.65-12.65V284.37c0-5.74,3.93-10.85,9.51-12.26l312.35-81.11
		c8.02-2.12,15.88,3.93,15.88,12.26V705.5h55.33V377.35c0-8.1,7.47-14.07,15.33-12.42l136.21,29.08c5.9,1.26,10.06,6.45,10.06,12.42
		V748.18z"/>
	<path d="M755.62,609.9c0,3.52-2.84,6.36-6.36,6.36h-84.82c-3.52,0-6.36-2.84-6.36-6.36v-15.43c0-3.52,2.84-6.36,6.36-6.36h84.82
		c3.52,0,6.36,2.84,6.36,6.36C755.62,594.47,755.62,609.9,755.62,609.9z"/>
	<path d="M755.62,531.91c0,3.52-2.84,6.36-6.36,6.36h-84.82c-3.52,0-6.36-2.84-6.36-6.36v-15.43c0-3.52,2.84-6.36,6.36-6.36h84.82
		c3.52,0,6.36,2.84,6.36,6.36C755.62,516.48,755.62,531.91,755.62,531.91z"/>
</g>
</svg>
