<?xml version="1.0" encoding="utf-8"?>
<!-- Generator: Adobe Illustrator 25.0.0, SVG Export Plug-In . SVG Version: 6.00 Build 0)  -->
<svg version="1.1" id="图层_1" xmlns="http://www.w3.org/2000/svg" xmlns:xlink="http://www.w3.org/1999/xlink" x="0px" y="0px"
	 viewBox="0 0 1024 1024" style="enable-background:new 0 0 1024 1024;" xml:space="preserve">
<style type="text/css">
	.st0{clip-path:url(#SVGID_2_);}
</style>
<g>
	<defs>
		<rect id="SVGID_1_" x="97" y="97" width="829.99" height="829.99"/>
	</defs>
	<clipPath id="SVGID_2_">
		<use xlink:href="#SVGID_1_"  style="overflow:visible;"/>
	</clipPath>
	<g id="组_113" class="st0">
		<path id="路径_124" d="M822.89,97.6H201.17c-57.21,0-103.6,46.36-103.63,103.57V304.8h828.98V201.23
			C926.52,143.99,880.12,97.6,822.89,97.6 M512,252.98c-28.62,0-51.82-23.2-51.82-51.82s23.2-51.82,51.82-51.82
			c28.62,0,51.82,23.2,51.82,51.82S540.62,252.98,512,252.98L512,252.98 M667.45,252.98c-28.62,0-51.82-23.2-51.82-51.82
			s23.2-51.82,51.82-51.82c28.62,0,51.82,23.2,51.82,51.82c0,0,0,0,0,0C719.23,229.77,696.05,252.95,667.45,252.98 M822.89,252.98
			c-28.62,0-51.82-23.2-51.82-51.82s23.2-51.82,51.82-51.82c28.62,0,51.82,23.2,51.82,51.82c0,0,0,0,0,0
			C874.67,229.77,851.49,252.95,822.89,252.98"/>
		<path id="路径_125" d="M97.54,356.67v466.22c0,57.23,46.4,103.63,103.63,103.63c0,0,0,0,0,0h621.72
			c57.23,0,103.63-46.4,103.63-103.63l0,0V356.67H97.54z M378.13,597.67c12.09,12.54,12.09,32.4,0,44.94l-0.65,0.59
			c-12.13,11.76-31.5,11.45-43.26-0.69c-0.03-0.03-0.05-0.06-0.08-0.08l-72.09-73.93c-12.09-12.81-12.09-32.83,0-45.65l72.09-74.17
			l0.71-0.59l0,0c12.02-11.69,31.23-11.43,42.92,0.59c0.04,0.04,0.08,0.08,0.12,0.12c12.08,12.52,12.08,32.36,0,44.88l-50.75,51.99
			L378.13,597.67z M587.35,434.04L468.19,733.73c-4.61,11.81-15.96,19.6-28.63,19.68c-4.07,0.05-8.11-0.76-11.86-2.37
			c-16.06-6.86-23.63-25.34-17.01-41.5l119.58-299.63v-0.71l0,0c6.55-15.62,24.47-23.03,40.14-16.6
			c16.06,6.86,23.62,25.36,16.96,41.5 M645.92,493.38c-12.08-12.52-12.08-32.36,0-44.88l0.71-0.71
			c12.11-11.69,31.4-11.35,43.09,0.75c0.04,0.05,0.09,0.09,0.13,0.14l72.27,74.17c12.09,12.81,12.09,32.83,0,45.65l-72.27,73.93
			l-0.59,0.65c-12.1,11.79-31.47,11.53-43.26-0.57c-0.03-0.03-0.05-0.05-0.08-0.08c-12.05-12.51-12.05-32.31,0-44.82l50.75-51.99
			L645.92,493.38z M771.08,903.64c-72.43,0.03-131.16-58.65-131.2-131.08c-0.03-72.43,58.65-131.16,131.08-131.2
			c72.43-0.03,131.16,58.65,131.2,131.08c0,0.14,0,0.28,0,0.41c0,72.4-58.68,131.11-131.08,131.14"/>
		<path id="路径_126" d="M817.85,790.64h-30.83c-4.75,0-8.6-3.85-8.6-8.59c0-4.75,3.85-8.6,8.59-8.6c0,0,0,0,0.01,0h30.83h1.48
			c4.76-0.84,7.96-5.36,7.17-10.14c-0.91-4.29-4.74-7.33-9.13-7.23h-15.59c-2.42,0.04-4.42-1.88-4.47-4.31
			c-0.02-1.18,0.43-2.32,1.27-3.16l16.78-17.13l0.95-1.13c2.56-3.9,1.6-9.13-2.19-11.86c-3.75-2.56-8.82-1.95-11.86,1.42
			l-26.03,26.56c-3.36,3.41-8.84,3.45-12.24,0.09c-0.03-0.03-0.06-0.06-0.09-0.09l-27.75-27.21c-0.33-0.36-0.71-0.68-1.13-0.95
			c-3.98-2.77-9.45-1.78-12.21,2.19c-2.56,3.75-1.95,8.82,1.42,11.86l16.96,16.6c1.74,1.69,1.77,4.47,0.08,6.2
			c-0.85,0.87-2.01,1.35-3.22,1.33h-16.78c-0.47-0.06-0.95-0.06-1.42,0c-4.76,0.82-7.98,5.31-7.23,10.08
			c0.91,4.3,4.73,7.36,9.13,7.29h30.35c4.75,0,8.6,3.85,8.6,8.59c0,4.75-3.84,8.6-8.59,8.6c0,0,0,0-0.01,0h-30.83h-1.42
			c-4.77,0.85-7.99,5.35-7.23,10.14c0.91,4.29,4.74,7.33,9.13,7.23h30.29c4.78,0,8.66,3.88,8.66,8.66c0,0.02,0,0.04,0,0.06v17.31
			v1.48c0.82,4.76,5.32,7.96,10.08,7.17c4.31-0.86,7.38-4.68,7.29-9.07v-16.9c-0.03-4.78,3.82-8.68,8.6-8.71c0.02,0,0.04,0,0.06,0
			h30.29c4.39,0.1,8.22-2.94,9.13-7.23v-1.54c0-4.81-3.9-8.71-8.71-8.71c0,0,0,0,0,0"/>
	</g>
</g>
</svg>
