<?xml version="1.0" encoding="utf-8"?>
<!-- Generator: Adobe Illustrator 25.0.0, SVG Export Plug-In . SVG Version: 6.00 Build 0)  -->
<svg version="1.1" id="图层_1" xmlns="http://www.w3.org/2000/svg" xmlns:xlink="http://www.w3.org/1999/xlink" x="0px" y="0px"
	 viewBox="0 0 1024 1024" style="enable-background:new 0 0 1024 1024;" xml:space="preserve">
<path d="M130.3,66.68h763.4c35.13,0,63.62,28.48,63.62,63.62v254.47c0,35.13-28.48,63.62-63.62,63.62l0,0H130.3
	c-35.13,0-63.62-28.48-63.62-63.62V130.3C66.68,95.17,95.17,66.68,130.3,66.68C130.3,66.68,130.3,66.68,130.3,66.68z M225.72,193.92
	c-17.57,0-31.81,14.24-31.81,31.81s14.24,31.81,31.81,31.81h190.85c17.57-0.01,31.8-14.25,31.79-31.82
	c-0.01-17.56-14.24-31.79-31.79-31.79C416.57,193.92,225.72,193.92,225.72,193.92z M130.3,575.62h763.4
	c35.13,0,63.62,28.48,63.62,63.62V893.7c0,35.13-28.48,63.62-63.62,63.62H130.3c-35.13,0-63.62-28.48-63.62-63.62c0,0,0,0,0,0
	V639.23C66.68,604.1,95.17,575.62,130.3,575.62C130.3,575.62,130.3,575.62,130.3,575.62L130.3,575.62z M225.72,702.85
	c-17.57,0-31.81,14.24-31.81,31.81c0,17.57,14.24,31.81,31.81,31.81h190.85c17.57,0,31.81-14.24,31.81-31.81
	c0-17.57-14.24-31.81-31.81-31.81C416.57,702.85,225.72,702.85,225.72,702.85z"/>
</svg>
