<?xml version="1.0" encoding="utf-8"?>
<!-- Generator: Adobe Illustrator 25.0.0, SVG Export Plug-In . SVG Version: 6.00 Build 0)  -->
<svg version="1.1" id="图层_1" xmlns="http://www.w3.org/2000/svg" xmlns:xlink="http://www.w3.org/1999/xlink" x="0px" y="0px"
	 viewBox="0 0 1024 1024" style="enable-background:new 0 0 1024 1024;" xml:space="preserve">
<path d="M960.98,640.28v256.56c0,35.42-28.72,64.14-64.14,64.14H127.16c-35.42,0-64.14-28.72-64.14-64.14c0,0,0,0,0,0V642.78h192.42
	v61.64c0,70.85,57.43,128.28,128.28,128.28h256.56c70.85,0,128.28-57.43,128.28-128.28v-64.14H960.98z M781.26,63.02
	c30.06,0.01,56.08,20.88,62.6,50.22L932.44,512H768.56c-70.85,0-128.28,57.43-128.28,128.28v64.14H383.72v-61.64
	c0-70.85-57.43-128.28-128.28-128.28l-164.07-0.06l88.83-401.13c6.5-29.37,32.52-50.27,62.6-50.29H781.26z M704.42,255.44H319.58
	v128.28h384.84V255.44z"/>
</svg>
