<?xml version="1.0" encoding="utf-8"?>
<!-- Generator: Adobe Illustrator 25.0.0, SVG Export Plug-In . SVG Version: 6.00 Build 0)  -->
<svg version="1.1" id="图层_1" xmlns="http://www.w3.org/2000/svg" xmlns:xlink="http://www.w3.org/1999/xlink" x="0px" y="0px"
	 viewBox="0 0 1024 1024" style="enable-background:new 0 0 1024 1024;" xml:space="preserve">
<path d="M868.45,66.45h-712.9c-49.26,0-89.11,40.03-89.11,89.46v712.03c0,64.92,66.66,108.26,125.58,81.63l283.53-127.75
	c23.24-10.44,49.78-10.44,72.93,0l283.53,127.75c59,26.54,125.58-16.8,125.58-81.63V155.91C957.56,106.48,917.71,66.45,868.45,66.45
	z M671.58,377.7v76.81H570.27v55.62h101.31v76.81H570.27v103.3H450.42v-103.3h-98.66v-76.81h98.66v-55.62h-98.66V377.7h61.58
	L321.3,173.76h124.48l67.54,194.67l67.54-194.67H702.7L611.99,377.7H671.58z"/>
</svg>
