<?xml version="1.0" encoding="utf-8"?>
<!-- Generator: Adobe Illustrator 25.0.0, SVG Export Plug-In . SVG Version: 6.00 Build 0)  -->
<svg version="1.1" id="图层_1" xmlns="http://www.w3.org/2000/svg" xmlns:xlink="http://www.w3.org/1999/xlink" x="0px" y="0px"
	 viewBox="0 0 1024 1024" style="enable-background:new 0 0 1024 1024;" xml:space="preserve">
<style type="text/css">
	.st0{fill:#999999;}
</style>
<path class="st0" d="M856.49,585.12H755.6v-16.89c-0.26-41.28-33.57-74.72-74.85-75.16c-28.12-0.27-56.24,0-84.31,0h-63.71v-54.2
	h89.35c29.47,0.07,53.42-23.76,53.49-53.23c0-0.04,0-0.09,0-0.13V167.42c-0.02-29.47-23.93-53.34-53.41-53.32c-0.03,0-0.06,0-0.09,0
	H403.99c-29.45-0.02-53.34,23.83-53.36,53.27c0,0.01,0,0.03,0,0.04v218.13c0,29.45,23.87,53.32,53.32,53.32c0.01,0,0.03,0,0.04,0
	h85.9v53.98H342.5c-8.8-0.2-17.58,1.09-25.95,3.8c-22.28,7.69-39.79,25.2-47.48,47.48c-3.3,11.63-4.58,23.74-3.8,35.81v3.67h-97.75
	c-29.47-0.02-53.38,23.85-53.41,53.32c0,0.01,0,0.03,0,0.04v218.09c0.02,29.47,23.94,53.34,53.41,53.32c0,0,0,0,0,0H385.6
	c29.45,0,53.34-23.86,53.36-53.32V636.98c0-29.47-23.89-53.36-53.36-53.36h0h-77.63v-14.94v-4.42v-1.24v-0.49
	c0.04-0.44,0.04-0.89,0-1.33v0.75c0.45-2.2,1.04-4.37,1.77-6.5c0.2-0.52,0.42-1.04,0.66-1.55c0.88-1.73,1.86-3.41,2.92-5.04
	c0.62-0.97,1.41-1.86,1.99-2.83l-0.53,0.88c1.46-1.64,3.05-3.05,4.42-4.42c0.53-0.4,1.02-0.8,1.55-1.11
	c1.8-1.07,3.66-2.03,5.57-2.87h-0.88c0.88-0.22,1.86-0.71,2.74-1.02c2.15-0.69,4.33-1.26,6.54-1.72c0.84,0,1.72-0.22,2.48-0.27
	H686.1c1.94,0.41,3.86,0.93,5.75,1.55c1.11,0.35,2.21,0.93,3.32,1.19h-0.88c1.73,0.88,3.41,1.85,5.04,2.92l1.28,0.88l0.8,0.88
	c1.43,1.28,2.79,2.64,4.07,4.07l-0.53-0.88c0.49,0.84,1.15,1.59,1.68,2.34c1.18,1.78,2.26,3.62,3.23,5.53c0,0.35,0.4,0.88,0.62,1.41
	c0.15,0.34,0.26,0.7,0.35,1.06c0.62,1.89,1.14,3.8,1.55,5.75v0.31c0.03-0.41,0.03-0.83,0-1.24c0,0.8,0,1.64,0.22,2.43v21.31h-74.14
	c-29.47,0-53.36,23.89-53.36,53.36l0,0v218.09c-0.02,29.47,23.85,53.38,53.32,53.41c0.01,0,0.03,0,0.04,0h218.05
	c29.47,0.02,53.38-23.85,53.41-53.32l0,0V638.49c0-29.45-23.87-53.32-53.32-53.32c-0.03,0-0.06,0-0.09,0L856.49,585.12z"/>
</svg>
