<?xml version="1.0" encoding="utf-8"?>
<!-- Generator: Adobe Illustrator 25.0.0, SVG Export Plug-In . SVG Version: 6.00 Build 0)  -->
<svg version="1.1" id="图层_1" xmlns="http://www.w3.org/2000/svg" xmlns:xlink="http://www.w3.org/1999/xlink" x="0px" y="0px"
	 viewBox="0 0 1024 1024" style="enable-background:new 0 0 1024 1024;" xml:space="preserve">
<g>
	<path d="M856.12,70.12h-712.9c-49.26,0-89.11,40.03-89.11,89.46v712.03c0,64.92,66.66,108.26,125.58,81.63L463.2,825.49
		c23.24-10.44,49.78-10.44,72.93,0l283.53,127.75c59,26.54,125.58-16.8,125.58-81.63V159.58
		C945.23,110.16,905.37,70.12,856.12,70.12z M836.5,316.82l-76.89,370.47c-6.66,32.08-34.92,55.08-67.69,55.08h-388.7
		c-32.77,0-61.03-23-67.69-55.08l-76.89-370.47c-1.94-9.35,4.06-18.5,13.41-20.44c3.47-0.72,7.07-0.36,10.32,1.04l138.86,59.51
		c7.17,3.07,15.52,0.96,20.36-5.16l142.43-179.92c5.93-7.48,16.8-8.75,24.28-2.82c1.05,0.83,1.99,1.78,2.82,2.82l142.43,179.92
		c4.84,6.12,13.19,8.23,20.36,5.16l138.85-59.51c8.77-3.77,18.93,0.29,22.7,9.06C836.86,309.75,837.23,313.35,836.5,316.82z"/>
	<polygon points="544.72,381.06 544.72,495.71 445.14,495.71 445.14,381.06 392.88,381.06 392.88,658.43 445.14,658.43 
		445.14,546.07 544.72,546.07 544.72,658.43 596.99,658.43 596.99,381.06 	"/>
</g>
</svg>
