<?xml version="1.0" encoding="utf-8"?>
<!-- Generator: Adobe Illustrator 25.0.0, SVG Export Plug-In . SVG Version: 6.00 Build 0)  -->
<svg version="1.1" id="图层_1" xmlns="http://www.w3.org/2000/svg" xmlns:xlink="http://www.w3.org/1999/xlink" x="0px" y="0px"
	 viewBox="0 0 1024 1024" style="enable-background:new 0 0 1024 1024;" xml:space="preserve">
<path d="M856.25,167.71C783.04,92.44,660.29,66.68,512,64.67c-148.29,2.02-271.04,27.78-344.29,103.09
	C92.44,240.96,66.68,363.71,64.67,512c2.02,148.29,27.78,271.04,103.09,344.29c73.2,75.26,195.96,101.03,344.25,103.04
	c148.29-2.02,271.04-27.78,344.29-103.09c75.27-73.2,101.03-195.96,103.04-344.25C957.32,363.71,931.56,240.96,856.25,167.71z
	 M309.46,567.39c-30.59,0-55.39-24.8-55.39-55.39c0-30.59,24.8-55.39,55.39-55.39c30.59,0,55.39,24.8,55.39,55.39
	C364.85,542.59,340.05,567.39,309.46,567.39z M512,567.39c-30.59,0-55.39-24.8-55.39-55.39c0-30.59,24.8-55.39,55.39-55.39
	c30.59,0,55.39,24.8,55.39,55.39C567.39,542.59,542.59,567.39,512,567.39z M714.54,567.39c-30.59,0-55.39-24.8-55.39-55.39
	c0-30.59,24.8-55.39,55.39-55.39c30.59,0,55.39,24.8,55.39,55.39C769.93,542.59,745.13,567.39,714.54,567.39z"/>
</svg>
