<?xml version="1.0" encoding="utf-8"?>
<!-- Generator: Adobe Illustrator 25.0.0, SVG Export Plug-In . SVG Version: 6.00 Build 0)  -->
<svg version="1.1" id="图层_1" xmlns="http://www.w3.org/2000/svg" xmlns:xlink="http://www.w3.org/1999/xlink" x="0px" y="0px"
	 viewBox="0 0 1024 1024" style="enable-background:new 0 0 1024 1024;" xml:space="preserve">
<g>
	<path d="M934.94,716.27c-9.3-8.25-21.42-12.6-33.84-12.14c-27.48,2.06-53.89,11.51-76.43,27.37
		c-81.7,51.08-126.8,76.97-175.33,77.15c-29.79-1.19-59.06-8.13-86.21-20.45c-47.64-18.13-77.91-31.25-96.57-41.3
		c-7.19-3.58-13.89-8.08-19.91-13.39l-10.67-10.89l12.68-18.13l5.98-1.79c6.8-2.36,13.98-3.4,21.16-3.08
		c34.37,3.26,68.2,10.76,100.72,22.32c15.94,4.87,31.25,9.42,43.26,12.32c8.02,1.9,16.23,2.87,24.47,2.9
		c38.22,0,67.37-23.22,67.73-54.33c0.36-31.12-28.8-54.33-74.43-65.59c-24.64-5.98-45.63-11.79-64.65-17.01
		c-41.84-13.84-85.43-21.72-129.47-23.39c-17.45,0.13-34.88,1.48-52.15,4.02c-74.83,11.03-181.13,66.97-297.79,156.84
		c-2.61,2.29-5.45,4.29-8.48,5.98l-7.46,4.46c-3.44,54.33,74.11,170.82,125.01,186.22c2.46-0.98,4.87-2.05,7.23-3.26l2.72-1.12
		c14.39-4.58,29.01-8.38,43.8-11.38c33.72-7.53,68.14-11.48,102.69-11.79c32.97,2.1,65.45,9.11,96.35,20.81
		c48.84,17.81,100.2,27.78,152.15,29.56c101.39,0,174.12-54.33,232.74-97.64c16.65-13.01,34-25.09,51.97-36.21
		c34.6-20.67,54.33-49.11,54.33-77.73C946.69,734.68,942.52,724.14,934.94,716.27L934.94,716.27z"/>
	<path d="M466.16,746.36c-7.21-3.54-13.91-8.05-19.91-13.39l-10.67-10.85l12.72-18.17l5.94-1.79c6.81-2.38,14.01-3.42,21.21-3.08
		c34.37,3.26,68.2,10.76,100.72,22.32c15.94,4.87,31.25,9.42,43.26,12.32c8.02,1.88,16.23,2.85,24.47,2.9
		c38.22,0,67.37-23.22,67.73-54.33c0.36-31.12-28.8-54.38-74.43-65.59c-24.64-5.98-45.67-11.79-64.65-17.01
		c-41.85-13.84-85.43-21.71-129.47-23.39c-17.45,0.13-34.88,1.48-52.15,4.02c-51.04,9.75-100.05,28.12-144.92,54.33
		c67.56,97.22,178.37,155.3,296.76,155.55c8.84,0.22,17.69-0.2,26.48-1.25l-7.46-2.72C514.91,768.64,484.64,756.5,466.16,746.36z"/>
	<path d="M443.16,541.3c25.66,0.27,51.23,3.26,76.26,8.93v-52.55h-87.46c-13.2,0.57-24.37-9.67-24.94-22.87
		c-0.57-13.2,9.67-24.37,22.87-24.94c0.69-0.03,1.38-0.03,2.07,0h87.77v-42.59h-87.77c-13.2,0.57-24.37-9.67-24.94-22.87
		c-0.57-13.2,9.67-24.37,22.87-24.94c0.69-0.03,1.38-0.03,2.07,0h42.19l-42.41-87.46c-5.8-11.75-1.01-25.98,10.72-31.83h0.54
		c11.91-5.66,26.15-0.78,32.1,10.98l52.68,108.67h25.54l52.5-108.67c6.01-11.87,20.36-16.83,32.41-11.21
		c11.92,5.65,17,19.9,11.35,31.82c0,0.01-0.01,0.01-0.01,0.02l-42.59,87.46h48.4c13.2,0.57,23.45,11.74,22.87,24.94
		c-0.54,12.4-10.47,22.34-22.87,22.87h-87.51v42.59h87.51c13.2,0.57,23.45,11.74,22.87,24.94c-0.54,12.4-10.47,22.34-22.87,22.87
		h-87.51v60.59c0.13,1.26,0.13,2.53,0,3.79l14.87,3.97c17.86,5.09,39.47,10.67,63.58,16.65c62.5,14.87,101.79,54.33,102.15,100.72
		c-0.26,24.58-11.17,47.84-29.91,63.76c175.51-96.04,239.94-316.18,143.9-491.69S546.26,15.31,370.75,111.35
		s-239.94,316.18-143.9,491.69c0,0,0,0,0,0c0.49,0.94,0.98,1.83,1.52,2.72c48.69-28.8,101.92-49.12,157.42-60.09
		c19.01-2.83,38.2-4.32,57.42-4.46L443.16,541.3z"/>
</g>
</svg>
