<?xml version="1.0" encoding="utf-8"?>
<!-- Generator: Adobe Illustrator 25.0.0, SVG Export Plug-In . SVG Version: 6.00 Build 0)  -->
<svg version="1.1" id="图层_1" xmlns="http://www.w3.org/2000/svg" xmlns:xlink="http://www.w3.org/1999/xlink" x="0px" y="0px"
	 viewBox="0 0 1024 1024" style="enable-background:new 0 0 1024 1024;" xml:space="preserve">
<g>
	<path d="M845.12,112.25H178.88c-63.08,0-114.21,51.13-114.21,114.21v38.07h95.16c21.02,0,38.07,17.05,38.07,38.07v114.21
		c0,21.02-17.05,38.07-38.07,38.07H64.67v114.21h95.16c21.02,0,38.07,17.05,38.07,38.07v114.21c0,21.02-17.05,38.07-38.07,38.07
		H64.67v38.07c0,63.08,51.13,114.21,114.21,114.21h666.24c63.08,0,114.21-51.13,114.21-114.21V226.46
		C959.33,163.38,908.2,112.25,845.12,112.25z M324.87,669.48c13.75-51.07,41.94-56.03,41.94-56.03
		c72.84-9.94,94.75-34.07,94.75-34.07c15.42-13.06,17.1-35.39,16.34-49.6c-34.81-18.97-65.24-65.47-65.24-127.75
		c0-80.87,53.12-106.87,99.31-106.87v-0.03c46.22,0,99.31,26.02,99.31,106.89c0,62.27-30.4,108.78-65.24,127.75
		c-0.73,14.22,0.94,36.54,16.34,49.6c0,0,21.93,24.13,94.75,34.07l0.03,0c0,0,28.2,4.96,41.97,56.03H324.87z"/>
	<path d="M148.48,297.53c10.26,0,18.6,8.21,18.6,18.36v65.21c0,10.13-8.32,18.36-18.6,18.36H83.26c-10.26,0-18.6-12.49-18.6-22.61
		v-60.96c0-10.15,8.34-18.36,18.6-18.36C83.26,297.53,148.48,297.53,148.48,297.53z"/>
	<path d="M83.26,620.76h65.21c10.26,0,18.6,8.24,18.6,18.36v65.21c0,10.13-8.32,18.36-18.6,18.36H83.26
		c-10.26,0-18.6-12.49-18.6-22.61v-60.94c0-10.15,8.34-18.36,18.6-18.36L83.26,620.76z"/>
</g>
</svg>
