<?xml version="1.0" encoding="utf-8"?>
<!-- Generator: Adobe Illustrator 25.0.0, SVG Export Plug-In . SVG Version: 6.00 Build 0)  -->
<svg version="1.1" id="图层_1" xmlns="http://www.w3.org/2000/svg" xmlns:xlink="http://www.w3.org/1999/xlink" x="0px" y="0px"
	 viewBox="0 0 1024 1024" style="enable-background:new 0 0 1024 1024;" xml:space="preserve">
<path d="M868.45,66.45h-712.9c-49.26,0-89.11,40.03-89.11,89.46v712.03c0,64.92,66.66,108.26,125.58,81.63l283.53-127.75
	c23.24-10.44,49.78-10.44,72.93,0l283.53,127.75c59,26.54,125.58-16.8,125.58-81.63V155.91C957.56,106.48,917.71,66.45,868.45,66.45
	z M642.93,583.3H381.07c-31.31,0-56.92-25.56-56.92-56.87s25.61-56.92,56.92-56.92h261.85c31.31,0,56.92,25.61,56.92,56.92
	C699.85,557.69,674.29,583.3,642.93,583.3z M754.78,324.68c0-0.01,0-0.02,0-0.03c-0.01,31.35-25.57,56.94-56.92,56.94H326.04
	c-31.31,0-56.81-25.56-56.81-56.87c0-31.31,25.56-56.92,56.87-56.92h371.77c31.3,0,56.9,25.6,56.92,56.84c0-0.01,0-0.02,0-0.03
	V324.68z"/>
</svg>
