<?xml version="1.0" encoding="utf-8"?>
<!-- Generator: Adobe Illustrator 25.0.0, SVG Export Plug-In . SVG Version: 6.00 Build 0)  -->
<svg version="1.1" id="图层_1" xmlns="http://www.w3.org/2000/svg" xmlns:xlink="http://www.w3.org/1999/xlink" x="0px" y="0px"
	 viewBox="0 0 1024 1024" style="enable-background:new 0 0 1024 1024;" xml:space="preserve">
<path d="M868.45,66.45h-712.9c-49.26,0-89.11,40.03-89.11,89.46v712.03c0,64.92,66.66,108.26,125.58,81.63l283.53-127.75
	c23.24-10.44,49.78-10.44,72.93,0l283.53,127.75c59,26.54,125.58-16.8,125.58-81.63V155.91C957.56,106.48,917.71,66.45,868.45,66.45
	z M820.24,517.66c-14.57,9.01-28.63,18.81-42.13,29.35c-47.52,35.11-106.49,79.16-188.69,79.16c-42.12-1.44-83.75-9.53-123.35-23.96
	c-25.05-9.48-51.38-15.17-78.11-16.87c-28.01,0.25-55.91,3.45-83.25,9.56c-11.99,2.44-23.85,5.52-35.51,9.23l-2.21,0.9
	c-1.92,0.98-3.87,1.85-5.86,2.64c-41.26-12.49-104.13-106.92-101.35-150.97l6.04-3.62c2.46-1.37,4.76-2.99,6.88-4.85
	c94.58-72.86,180.76-118.21,241.42-127.15c14-2.06,28.13-3.15,42.28-3.26c35.71,1.36,71.04,7.74,104.97,18.97
	c15.42,4.23,32.43,8.94,52.41,13.79c36.99,9.12,60.63,27.94,60.34,53.17c-0.29,25.23-23.93,44.05-54.91,44.05
	c-6.68-0.02-13.33-0.81-19.83-2.35c-9.74-2.35-22.15-6.04-35.07-9.99c-26.37-9.38-53.8-15.46-81.66-18.1
	c-5.83-0.26-11.65,0.59-17.16,2.5l-4.85,1.45L450.37,436l8.65,8.83c4.88,4.31,10.31,7.96,16.14,10.86
	c15.13,8.14,39.67,18.79,78.29,33.48c22.01,9.98,45.74,15.61,69.89,16.58c39.34-0.14,75.9-21.14,142.14-62.55
	c18.27-12.85,39.69-20.52,61.97-22.19c10.07-0.37,19.9,3.16,27.44,9.84l0,0c6.14,6.38,9.52,14.92,9.41,23.78
	C864.29,477.84,848.3,500.9,820.24,517.66z"/>
</svg>
