<?xml version="1.0" encoding="utf-8"?>
<!-- Generator: Adobe Illustrator 25.0.0, SVG Export Plug-In . SVG Version: 6.00 Build 0)  -->
<svg version="1.1" id="图层_1" xmlns="http://www.w3.org/2000/svg" xmlns:xlink="http://www.w3.org/1999/xlink" x="0px" y="0px"
	 viewBox="0 0 1024 1024" style="enable-background:new 0 0 1024 1024;" xml:space="preserve">
<g id="组_106" transform="translate(-71 -65)">
	<path id="路径_113" d="M966.64,717.64H707.99c-14.05-0.12-26.48,9.09-30.47,22.56c-16.36,53.89-73.32,84.32-127.21,67.96
		c-32.58-9.89-58.07-35.38-67.96-67.96c-4.09-13.4-16.46-22.56-30.47-22.56H199.36c-34.29-0.25-62.28,27.35-62.53,61.63
		c0,0.04,0,0.09,0,0.13v182.16c0.25,34.29,28.24,61.88,62.52,61.63c0,0,0,0,0,0h767.28c34.29,0.25,62.28-27.35,62.53-61.63
		c0,0,0,0,0,0V779.4c-0.18-34.29-28.11-61.94-62.4-61.76C966.73,717.64,966.68,717.64,966.64,717.64z M716.15,208.43v3.31
		C715.45,209.77,715.45,209.07,716.15,208.43c-0.7-1.34,0-1.98,0-3.31V208.43z"/>
	<path id="路径_114" d="M921.96,130.8H406.83c-19.98,1.23-35.29,18.24-34.42,38.24v504.17h136.97
		c-4.63,37.98,22.4,72.53,60.38,77.16c37.98,4.63,72.53-22.4,77.16-60.38c0.68-5.57,0.68-11.21,0-16.78h309.57V169.04
		c1.11-20-14.2-37.11-34.2-38.23C922.19,130.81,922.08,130.81,921.96,130.8z M517.86,300.15h293.2
		c13.73-0.02,24.88,11.09,24.9,24.81c0.02,13.73-11.09,24.88-24.81,24.9c-0.03,0-0.06,0-0.09,0h-293.2
		c-13.73,0.02-24.88-11.09-24.9-24.81c-0.02-13.73,11.09-24.88,24.81-24.9C517.8,300.15,517.83,300.15,517.86,300.15z
		 M811.06,523.62h-293.2c-13.73,0.02-24.88-11.09-24.9-24.81c-0.02-13.73,11.09-24.88,24.81-24.9c0.03,0,0.06,0,0.09,0h293.2
		c13.73-0.02,24.88,11.09,24.9,24.81c0.02,13.73-11.09,24.88-24.81,24.9C811.11,523.62,811.09,523.62,811.06,523.62z M261.06,208.5
		h42.39v464.71H200.57V268.79c0.11-33.44,27.3-60.47,60.74-60.36c0,0,0,0,0,0L261.06,208.5z"/>
</g>
</svg>
