<?xml version="1.0" encoding="utf-8"?>
<!-- Generator: Adobe Illustrator 25.0.0, SVG Export Plug-In . SVG Version: 6.00 Build 0)  -->
<svg version="1.1" id="图层_1" xmlns="http://www.w3.org/2000/svg" xmlns:xlink="http://www.w3.org/1999/xlink" x="0px" y="0px"
	 viewBox="0 0 1024 1024" style="enable-background:new 0 0 1024 1024;" xml:space="preserve">
<path d="M203.88,64.34h614.28c7.19,0.81,14.48,1.01,21.67,2.43c25.51,4.76,49.21,18.43,66.32,37.97
	c14.48,16.5,24.3,37.16,27.64,58.93c1.92,12.86-8.91,25.82-21.97,26.12H228.99c-3.44,0.1-6.99-0.3-10.43,0.61
	c-4.76,1.42-8.4,6.18-8.4,11.14v23.29c-0.1,4.66,2.73,9.01,6.88,10.93c2.94,1.42,6.28,0.91,9.42,1.01h385.46v244.52
	c-0.1,7.59,3.44,15.19,9.52,19.64c7.8,5.97,19.34,6.18,27.34,0.61c22.58-16,45.06-32.1,67.63-48.19
	c22.68,16.1,45.26,32.3,67.94,48.4c9.92,6.78,24.91,4.35,31.89-5.57c4.46-5.57,5.06-12.96,4.76-19.74V236.87h90.52
	c6.99,0,14.07,3.14,18.53,8.61c3.54,4.05,5.06,9.42,5.67,14.68v583.4c-0.81,14.78-3.34,29.67-9.21,43.33
	c-10.12,24.5-28.86,45.26-52.04,58.02c-14.17,7.8-30.07,12.66-46.27,14.07c-2.94,0.2-5.87,0.41-8.81,0.91H205.6
	c-10.12-0.81-20.35-1.52-30.17-4.35c-24.91-6.58-47.49-21.57-63.08-42.02c-14.58-18.83-23.29-42.32-24.2-66.22
	c-0.1-1.92-0.3-3.75-0.61-5.57V184.42c0.81-5.67,0.61-11.34,1.42-17.01c3.24-25.82,15.39-50.32,33.92-68.55
	c19.34-19.34,45.76-31.59,73-33.61C198.51,65.05,201.25,64.74,203.88,64.34 M277.99,595.09c-11.64,1.11-21.36,11.95-20.86,23.69
	c-0.3,12.05,10.33,23.08,22.38,23.39h464.33c8.71-0.2,16.91-5.77,20.45-13.67c2.73-6.08,2.83-13.47,0.1-19.54
	c-2.73-6.18-8.2-11.04-14.68-12.96c-4.35-1.42-8.91-0.81-13.26-0.91C583.46,595.09,430.68,594.89,277.99,595.09 M278.2,712.74
	c-11.74,0.91-21.46,11.85-21.16,23.59c-0.4,12.15,10.12,23.29,22.27,23.59h463.52c7.59,0.1,15.09-3.95,19.24-10.23
	c5.67-8,5.37-19.54-0.51-27.44c-4.35-5.87-11.54-9.72-18.83-9.52C588.02,712.84,433.11,712.64,278.2,712.74z"/>
</svg>
