<?xml version="1.0" encoding="utf-8"?>
<!-- Generator: Adobe Illustrator 25.0.0, SVG Export Plug-In . SVG Version: 6.00 Build 0)  -->
<svg version="1.1" id="图层_1" xmlns="http://www.w3.org/2000/svg" xmlns:xlink="http://www.w3.org/1999/xlink" x="0px" y="0px"
	 viewBox="0 0 1024 1024" style="enable-background:new 0 0 1024 1024;" xml:space="preserve">
<g>
	<path d="M703.62,307.34c5.31,16.36-3.65,33.91-20.01,39.22c-16.36,5.31-33.91-3.66-39.22-20.01c-5.31-16.36,3.66-33.91,20.01-39.22
		C680.75,282.01,698.31,290.98,703.62,307.34z"/>
	<path d="M555.55,457.56c-15.39-6.3-32.99,1.06-39.29,16.46c-6.3,15.39,1.06,32.99,16.46,39.29s32.99-1.06,39.29-16.46
		C578.31,481.45,570.95,463.86,555.55,457.56z"/>
	<g>
		<path d="M552.36,67.31c-167.25,0-305.88,122.34-331.37,282.41l-80.33,141.77c-13.35,23.55,3.66,52.75,30.73,52.75h54.2v176.2
			c0,49.76,46.52,86.42,94.9,74.81l60.78-8.4v113.09c0,31.34,25.41,56.75,56.75,56.75h184.44c31.34,0,56.75-25.41,56.75-56.75
			V713.65c122.46-50.03,208.78-170.27,208.78-310.73C887.99,217.56,737.73,67.31,552.36,67.31z M528.86,264.18
			c-0.26,1.21-0.99,2.19-1.96,2.81c-0.96,0.62-2.16,0.87-3.37,0.61l-17.5-3.82c-2.42-0.53-3.95-2.91-3.42-5.33
			c0.53-2.42,2.91-3.95,5.33-3.42l17.5,3.82C527.86,259.37,529.39,261.76,528.86,264.18z M508.27,322.12l0.01,0.1
			c0.37,3.46-1.25,6.84-4.18,8.73l-5.5,3.53c-2.93,1.88-6.68,1.94-9.68,0.16l-0.09-0.05c-2.22-1.32-5-1.28-7.18,0.12l-0.06,0.04
			c-1.65,1.06-3.86,1.11-5.36-0.15c-2.5-2.07-2.11-5.7,0.37-7.29l30.15-19.35c2.48-1.59,5.94-0.43,6.78,2.71
			c0.51,1.89-0.46,3.88-2.1,4.94l-0.06,0.04C509.2,317.04,508,319.55,508.27,322.12z M469.2,324.08c-1.33-2.08-0.73-4.85,1.35-6.19
			l30.15-19.35c2.08-1.33,4.85-0.73,6.19,1.35c1.33,2.08,0.73,4.85-1.35,6.19l-30.15,19.35
			C473.31,326.76,470.54,326.16,469.2,324.08z M496.08,208.4l15.08-9.67c2.08-1.33,4.85-0.73,6.19,1.35
			c1.33,2.08,0.73,4.85-1.35,6.19l-15.08,9.67c-2.08,1.33-4.85,0.73-6.19-1.35C493.4,212.51,494,209.73,496.08,208.4z
			 M454.73,183.82l3.82-17.5c0.53-2.42,2.91-3.95,5.33-3.42c2.42,0.53,3.95,2.91,3.42,5.33l-3.82,17.5
			c-0.26,1.21-0.99,2.19-1.96,2.81c-0.96,0.62-2.17,0.87-3.37,0.61C455.73,188.62,454.2,186.23,454.73,183.82z M362.6,227.87
			c0.53-2.42,2.92-3.95,5.33-3.42l17.5,3.82c2.42,0.53,3.95,2.91,3.42,5.33c-0.26,1.21-0.99,2.19-1.96,2.81s-2.17,0.87-3.37,0.61
			l-17.5-3.82C363.61,232.67,362.07,230.29,362.6,227.87z M395.38,283.65l-15.08,9.67c-2.08,1.33-4.85,0.73-6.19-1.35
			c-1.33-2.08-0.73-4.85,1.35-6.19l15.08-9.67c2.08-1.33,4.85-0.73,6.19,1.35C398.06,279.54,397.46,282.31,395.38,283.65z
			 M399.79,174.41c2.08-1.33,4.85-0.73,6.19,1.35l9.67,15.08c1.33,2.08,0.73,4.85-1.35,6.19c-2.08,1.33-4.85,0.73-6.19-1.35
			l-9.67-15.08C397.1,178.51,397.7,175.74,399.79,174.41z M436.73,308.23l-3.82,17.5c-0.26,1.21-0.99,2.2-1.96,2.81
			c-0.96,0.62-2.17,0.87-3.37,0.61c-2.42-0.53-3.95-2.91-3.42-5.33l3.82-17.5c0.53-2.41,2.92-3.95,5.33-3.42
			C435.73,303.43,437.26,305.81,436.73,308.23z M407.36,273.3c-14.02-21.86-7.67-50.95,14.19-64.97
			c21.86-14.02,50.95-7.67,64.97,14.19c16.02,24.97-2.88,43.77,8.38,66.49c2.05-1.16,4.67-0.54,5.96,1.47
			c1.33,2.08,0.73,4.85-1.35,6.19L469.34,316c-2.08,1.33-4.85,0.73-6.19-1.35c-1.29-2.01-0.76-4.64,1.15-6.03
			C448.35,288.92,423.38,298.27,407.36,273.3z M623.17,530.81l-31.37-5.38c-2.23,2.67-4.68,5.09-7.29,7.32l5.65,31.37l-22.22,9.31
			l-18.4-26.02c-3.41,0.3-6.87,0.34-10.33,0.07l-18.16,26.13l-22.28-9.14l5.38-31.37c-2.67-2.23-5.09-4.68-7.32-7.29l-31.37,5.65
			l-9.31-22.22l26.02-18.4c-0.3-3.41-0.34-6.87-0.07-10.33l-26.13-18.16l9.12-22.3l31.37,5.38c2.23-2.67,4.68-5.09,7.29-7.32
			l-5.65-31.37l22.22-9.31l18.4,26.02c3.41-0.3,6.87-0.34,10.33-0.07l18.16-26.13l22.3,9.12l-5.38,31.37
			c2.67,2.24,5.09,4.7,7.32,7.31l31.37-5.65l9.31,22.22l-26.02,18.4c0.3,3.41,0.34,6.87,0.07,10.33l26.13,18.16L623.17,530.81z
			 M762.85,348.28l-11.32,22.19l-31.88-8.24c-2.48,2.51-5.18,4.85-8.1,6.95l3.12,32.75l-23.69,7.69l-16.7-28.35
			c-3.59,0.01-7.15-0.31-10.64-0.88l-20.98,25.4l-22.19-11.32l8.24-31.89c-2.51-2.48-4.85-5.18-6.95-8.1l-32.75,3.12l-7.69-23.69
			l28.35-16.69c-0.01-3.59,0.3-7.15,0.88-10.64l-25.4-20.98l11.32-22.19l31.89,8.24c2.48-2.51,5.18-4.85,8.1-6.95l-3.12-32.75
			l23.69-7.69l16.7,28.35c3.59-0.01,7.15,0.31,10.64,0.88l20.97-25.4l22.19,11.32l-8.24,31.89c2.51,2.48,4.85,5.18,6.95,8.1
			l32.75-3.12l7.69,23.69l-28.35,16.7c0.01,3.59-0.3,7.15-0.88,10.64L762.85,348.28z"/>
		<path d="M419.65,224.48c-1.51-1.07-3.6-0.71-4.68,0.8c-7.13,10.08-9.08,23.11-5.22,34.85c0.58,1.76,2.48,2.72,4.24,2.14
			c0.28-0.09,0.53-0.21,0.76-0.36c1.26-0.81,1.86-2.39,1.38-3.88c-3.2-9.73-1.59-20.52,4.32-28.87
			C421.52,227.64,421.16,225.55,419.65,224.48z"/>
	</g>
</g>
</svg>
