<?xml version="1.0" encoding="utf-8"?>
<!-- Generator: Adobe Illustrator 25.0.0, SVG Export Plug-In . SVG Version: 6.00 Build 0)  -->
<svg version="1.1" id="图层_1" xmlns="http://www.w3.org/2000/svg" xmlns:xlink="http://www.w3.org/1999/xlink" x="0px" y="0px"
	 viewBox="0 0 1024 1024" style="enable-background:new 0 0 1024 1024;" xml:space="preserve">
<g>
	<path d="M536.46,752.58H247.06c-22.42,0-40.76-18.34-40.76-40.76v-61.14c0-22.42-18.34-40.76-40.76-40.76H104.4
		c-22.42,0-40.76,18.34-40.76,40.76v163.04c0,44.84,36.68,81.52,81.52,81.52h470.77C575.18,858.55,544.61,809.64,536.46,752.58z"/>
	<path d="M613.9,128.76H146.46c-44.84,0-81.52,36.68-81.52,81.52v338.5c16.43,0,132.45,3.72,146.08,10.37
		c33.69,16.46,56.42,50.89,56.42,91.52v40.76h266.97c8.15-97.82,82.09-179.34,169.72-209.91V209
		C704.14,164.16,658.73,128.76,613.9,128.76z M492.58,417.8l-77.57,77.57c-16.62,19.39-44.32,19.39-60.95,2.77l-77.57-77.57
		c-16.62-16.62-16.62-44.32,0-60.95c16.62-16.62,41.55-16.62,58.18,0l8.31,8.31V223.89c0-22.16,19.39-41.55,41.55-41.55
		s41.55,19.39,41.55,41.55v144.05l8.31-8.31c16.62-16.62,41.55-16.62,58.18,0C509.2,376.25,509.2,401.18,492.58,417.8z"/>
	<path d="M756.56,609.92h40.76v20.38c0,12.23-8.15,20.38-20.38,20.38s-20.38-8.15-20.38-20.38L756.56,609.92L756.56,609.92z"/>
	<path d="M776.94,528.4c-101.9,0-183.42,81.52-183.42,183.42s81.52,183.42,183.42,183.42s183.42-81.52,183.42-183.42
		S878.84,528.4,776.94,528.4z M838.08,813.72H715.8c-22.42,0-40.76-18.34-40.76-40.76V650.68c0-22.42,18.34-40.76,40.76-40.76h20.38
		v61.14c0,12.23,8.15,20.38,20.38,20.38h40.76c12.23,0,20.38-8.15,20.38-20.38v-61.14h20.38c22.42,0,40.76,18.34,40.76,40.76v122.28
		h0C878.84,795.38,860.49,813.72,838.08,813.72z"/>
	<path d="M838.08,732.2H715.8c-12.23,0-20.38,8.15-20.38,20.38s8.15,20.38,20.38,20.38h122.28c12.23,0,20.38-8.15,20.38-20.38
		S850.3,732.2,838.08,732.2z"/>
	<path d="M666.96,493.62"/>
</g>
</svg>
