<?xml version="1.0" encoding="utf-8"?>
<!-- Generator: Adobe Illustrator 25.0.0, SVG Export Plug-In . SVG Version: 6.00 Build 0)  -->
<svg version="1.1" id="图层_1" xmlns="http://www.w3.org/2000/svg" xmlns:xlink="http://www.w3.org/1999/xlink" x="0px" y="0px"
	 viewBox="0 0 1024 1024" style="enable-background:new 0 0 1024 1024;" xml:space="preserve">
<g>
	<path d="M89.84,113.42c21.32-26.36,54.78-42.54,88.74-42.45h231.08c26.85-0.49,53.8,8.98,74.53,26.16
		c22.31,18.16,37.31,44.81,41.16,73.24c1.88,13.33,0.89,26.75,1.18,40.18h298.8c16.58,0,33.27,3.06,48.37,9.77
		c25.37,11.06,46.39,31.49,58.14,56.56c7.4,15.69,11.25,33.07,10.96,50.44v227.53c-0.2,9.87-7.4,19.05-16.88,21.52
		c-7.6,2.17-16.29,0-22.01-5.43c-41.06-36.23-95.35-57.35-150.24-57.35c-37.21-0.49-74.62,8.49-107.69,25.57
		c-26.95,13.92-51.13,33.07-70.68,56.26c-21.81,25.66-38,56.26-46.79,88.84c-9.87,36.23-10.66,74.82-2.37,111.44
		c5.82,25.96,16.39,50.93,30.7,73.34c4.54,7.01,4.84,16.39,0.79,23.69c-3.75,6.91-11.35,11.65-19.25,11.85H177.89
		c-31.49-0.3-62.48-14.21-83.61-37.61c-16.68-18.06-27.24-41.66-29.61-66.04c-0.79-6.12-0.49-12.24-0.49-18.46V183.01
		C64.57,157.74,73.85,132.86,89.84,113.42 M271.07,360.49c-8.29,1.78-15.1,8.59-17.18,16.78c-1.68,6.71-0.39,14.31,3.85,19.84
		c4.15,5.63,11.06,9.18,17.97,9.28h455.15c10.86,0,20.83-8.59,22.41-19.35c1.58-8.59-2.17-17.87-9.38-22.9
		c-4.54-3.36-10.27-4.54-15.79-4.44H278.37C275.91,359.8,273.44,360,271.07,360.49 M273.64,533.53
		c-11.35,1.09-20.93,11.75-20.43,23.1c-0.39,11.94,9.87,22.8,21.81,23.2c46.89,0.1,93.87,0,140.76,0
		c8.39-0.1,16.48-5.13,20.14-12.63c3.55-7.11,3.26-15.99-0.89-22.7c-4.05-6.51-11.45-11.15-19.25-10.96
		C368.4,533.53,321.02,533.43,273.64,533.53 M269.98,707.65c-7.9,2.17-14.31,8.88-16.19,16.88c-1.58,6.51-0.3,13.82,3.75,19.25
		c4.15,5.82,11.06,9.38,18.16,9.57h140.17c8.39-0.1,16.48-5.23,20.14-12.83c3.55-7.11,3.16-16.09-1.09-22.8
		c-3.95-6.22-10.86-10.56-18.26-10.76H274.82C273.14,706.96,271.56,707.26,269.98,707.65z"/>
	<path d="M727.21,538.17c33.86-4.05,68.7,0.3,100.39,12.73c22.8,8.88,44.12,21.91,62.38,38.3c26.26,23.2,46.39,53.2,58.04,86.17
		c12.24,34.45,15,72.06,8.29,107.99c-5.63,30.3-18.16,59.23-36.33,84.1c-17.08,23.39-38.99,43.14-64.06,57.65
		c-30.6,17.77-65.74,27.34-101.08,27.93h-6.22c-40.87-0.69-81.44-13.42-115.1-36.72c-33.66-23.2-60.31-56.46-75.41-94.47
		c-12.24-30.7-16.88-64.36-13.72-97.23c3.16-33.07,14.41-65.44,32.57-93.18c16.48-25.47,38.69-47.18,64.36-63.27
		C667.39,552.09,696.91,541.62,727.21,538.17 M688.32,630.66c-8.98,0.69-17.27,7.21-19.84,15.89c-12.04,38.2-24.18,76.3-36.23,114.5
		c-1.09,3.65-2.47,7.3-3.36,11.06c-1.88,8.49,1.68,17.87,8.59,23c34.05,25.47,68.21,50.93,102.26,76.3
		c7.01,5.23,17.08,5.82,24.78,1.58c3.95-2.37,7.5-5.43,11.25-8.09c29.42-22.01,58.83-43.93,88.15-65.84
		c3.75-2.86,7.9-5.43,10.56-9.48c4.15-6.02,5.03-14.02,2.57-20.83c-12.83-40.67-25.76-81.24-38.6-121.91
		c-1.97-6.51-7.01-12.04-13.33-14.61c-5.23-2.37-11.06-1.58-16.58-1.68C768.57,630.66,728.49,630.56,688.32,630.66L688.32,630.66z"
		/>
	<path d="M707.37,676.76h92.1c9.57,30.4,19.25,60.81,28.82,91.21c-25.07,18.66-49.95,37.31-75.02,55.97
		c-24.88-18.66-49.95-37.21-74.82-55.97C688.12,737.56,697.79,707.16,707.37,676.76 M724.94,697.78c-5.73,0.59-11.15,3.36-14.91,7.7
		c-6.32,7.01-7.5,17.87-2.96,26.06c3.75,7.4,11.94,12.24,20.24,12.24h47.28c5.13,0.1,10.46,0.1,15.1-2.37
		c8.88-4.15,14.21-14.31,12.73-23.99c-1.18-9.18-8.29-17.08-17.27-19.15c-3.75-0.99-7.6-0.49-11.45-0.59
		C757.41,697.78,741.13,697.68,724.94,697.78L724.94,697.78z"/>
</g>
</svg>
