<?xml version="1.0" encoding="utf-8"?>
<!-- Generator: Adobe Illustrator 25.0.0, SVG Export Plug-In . SVG Version: 6.00 Build 0)  -->
<svg version="1.1" id="图层_1" xmlns="http://www.w3.org/2000/svg" xmlns:xlink="http://www.w3.org/1999/xlink" x="0px" y="0px"
	 viewBox="0 0 1024 1024" style="enable-background:new 0 0 1024 1024;" xml:space="preserve">
<g>
	<ellipse transform="matrix(0.1222 -0.9925 0.9925 0.1222 -58.6359 957.5474)" cx="512.01" cy="511.92" rx="89.35" ry="89.35"/>
	<path d="M856.25,167.71C783.04,92.44,660.29,66.68,512,64.67c-148.29,2.02-271.04,27.78-344.29,103.09
		C92.44,240.96,66.68,363.71,64.67,512c2.02,148.29,27.78,271.04,103.09,344.29c73.2,75.26,195.96,101.03,344.25,103.04
		c148.29-2.02,271.04-27.78,344.29-103.09c75.26-73.2,101.03-195.96,103.04-344.25C957.32,363.71,931.56,240.96,856.25,167.71z
		 M721.07,544.46l-76.43,134.03c-11.52,20.39-33.31,33-56.82,33H436.04c-23.53-0.01-45.26-12.59-56.97-33l-76.28-134.03
		c-11.36-20.15-11.36-44.77,0-64.91l76.43-134.03c11.68-20.39,33.47-33,56.82-33h151.78c23.53,0.01,45.26,12.59,56.97,33
		l76.43,134.03l0,0C732.59,499.47,732.59,524.38,721.07,544.46z"/>
</g>
</svg>
