<?xml version="1.0" encoding="utf-8"?>
<!-- Generator: Adobe Illustrator 25.0.0, SVG Export Plug-In . SVG Version: 6.00 Build 0)  -->
<svg version="1.1" id="图层_1" xmlns="http://www.w3.org/2000/svg" xmlns:xlink="http://www.w3.org/1999/xlink" x="0px" y="0px"
	 viewBox="0 0 1024 1024" style="enable-background:new 0 0 1024 1024;" xml:space="preserve">
<path d="M868.45,66.45h-712.9c-49.26,0-89.11,40.03-89.11,89.46v712.03c0,64.92,66.66,108.26,125.58,81.63l283.53-127.75
	c23.24-10.44,49.78-10.44,72.93,0l283.53,127.75c59,26.54,125.58-16.8,125.58-81.63V155.91C957.56,106.48,917.71,66.45,868.45,66.45
	z M666.68,418.26c-23.8,23.8-59.49,23.8-83.29,0l-11.9-11.9v206.25c0,31.73-27.76,59.49-59.49,59.49
	c-31.73,0-59.49-27.76-59.49-59.49V406.36l-11.9,11.9c-23.8,23.8-59.49,23.8-83.29,0s-23.8-59.49,0-83.29l111.06-111.06
	c23.8-27.76,63.46-27.76,87.26-3.97L666.69,331C690.48,354.8,690.48,394.46,666.68,418.26z"/>
</svg>
