<?xml version="1.0" encoding="utf-8"?>
<!-- Generator: Adobe Illustrator 25.0.0, SVG Export Plug-In . SVG Version: 6.00 Build 0)  -->
<svg version="1.1" id="图层_1" xmlns="http://www.w3.org/2000/svg" xmlns:xlink="http://www.w3.org/1999/xlink" x="0px" y="0px"
	 viewBox="0 0 1024 1024" style="enable-background:new 0 0 1024 1024;" xml:space="preserve">
<g>
	<path d="M828.78,430.43c-10.3-9.05-24.85-13.57-43.64-13.57h-44.47v193.34h44.47c18.79,0,33.33-4.52,43.64-13.57
		c10.3-9.05,15.45-21.85,15.45-38.42v-89.36C844.24,452.29,839.08,439.48,828.78,430.43z"/>
	<path d="M465.62,540.03c-1.96,1.42-3.79,3.02-5.45,4.82c-8.01,8.63-12.01,20.81-12.01,36.54c0,11.56,4.31,20.5,12.94,26.83
		c8.63,6.33,20.81,9.5,36.54,9.5c12.31,0,23.2-2.96,32.67-8.87l-60.44-64.21C468.41,543.11,467,541.57,465.62,540.03z"/>
	<path d="M280.39,433.57c-2.44-5.43-5.88-9.6-10.33-12.53c-4.46-2.92-9.68-4.38-15.66-4.38h-71.2v71.41h71.2
		c5.85,0,10.99-1.46,15.45-4.38c4.45-2.92,7.9-7.1,10.34-12.53c2.43-5.43,3.72-11.69,3.86-18.79
		C284.04,445.26,282.82,438.99,280.39,433.57z"/>
	<path d="M511.63,64.34c-247.3,0-447.78,200.48-447.78,447.78s200.48,447.78,447.78,447.78S959.4,759.42,959.4,512.12
		S758.93,64.34,511.63,64.34z M286.34,665.33L217.9,543.18h-34.7v122.14h-57.21V361.53h22.76h34.45h75.79
		c16.7,0,31.39,3.76,44.06,11.27c12.66,7.52,22.48,18.13,29.44,31.84c6.96,13.71,10.44,29.62,10.44,47.71
		c0,18.1-3.48,34-10.44,47.71c-6.96,13.71-16.81,24.32-29.54,31.84c-6.17,3.64-12.79,6.39-19.85,8.27l72.57,125.15H286.34z
		 M583.45,665.33l-17.37-18.46c-1.09,0.74-2.18,1.47-3.3,2.17c-20.46,12.95-45.31,19.42-74.54,19.42
		c-19.77,0-36.68-3.41-50.74-10.23c-14.06-6.82-24.78-16.74-32.15-29.75c-7.38-13.01-11.07-28.71-11.07-47.08
		c0-24.77,7.2-44.61,21.61-59.51c6.82-7.05,14.97-12.68,24.43-16.92c-4.72-8.65-8.45-17.48-11.17-26.51
		c-3.48-11.55-5.22-23.45-5.22-35.7c0-26.59,7.44-47.15,22.34-61.7c14.89-14.54,35.98-21.82,63.26-21.82
		c27.14,0,48.13,6.99,62.95,20.98c14.82,13.99,22.24,33.79,22.24,59.4v8.35h-57.21v-8.35c0-12.25-2.44-21.78-7.31-28.6
		c-4.87-6.82-11.76-10.23-20.67-10.23c-10.3,0-18.31,3.65-24.01,10.96c-5.71,7.31-8.56,17.64-8.56,31.01
		c0,7.38,1.81,15.63,5.43,24.74c3.62,9.12,8.87,18.79,15.76,29.02s15.14,20.64,24.74,31.21l37.5,41.25
		c0.39-1.03,0.76-2.08,1.13-3.15c5.71-16.63,8.56-36.15,8.56-58.57h55.12c0,33.27-5.29,61.98-15.87,86.13
		c-2.9,6.63-6.19,12.82-9.84,18.6l48.47,53.32H583.45z M890.07,613.75c-8.98,16.29-22.45,28.95-40.4,38
		c-17.96,9.05-39.95,13.57-65.98,13.57h-43.01h-28.4h-28.81V361.74h28.81h28.4h43.22c25.33,0,46.94,4.25,64.83,12.74
		c17.88,8.49,31.49,20.88,40.82,37.17c9.32,16.29,13.99,35.91,13.99,58.88v86.02C903.53,578.4,899.04,597.47,890.07,613.75z"/>
</g>
</svg>
